<?xml version="1.0" encoding="utf-8"?>
<!-- Generator: Adobe Illustrator 16.0.0, SVG Export Plug-In . SVG Version: 6.00 Build 0)  -->
<!DOCTYPE svg PUBLIC "-//W3C//DTD SVG 1.1//EN" "http://www.w3.org/Graphics/SVG/1.1/DTD/svg11.dtd">
<svg version="1.1" id="Layer_1" xmlns="http://www.w3.org/2000/svg" xmlns:xlink="http://www.w3.org/1999/xlink" x="0px" y="0px"
	 width="2419.51px" height="557.035px" viewBox="0 0 2419.51 557.035" enable-background="new 0 0 2419.51 557.035"
	 xml:space="preserve">
<g>
	<g>
		<path fill="#FFFFFF" d="M278.2,408.068c-40.106,12.731-63.024,15.278-93.582,15.278c-74.483,0-124.14-54.748-124.14-138.145
			V193.53H0v-88.489h60.479V0H163.61v105.041h105.041v88.489H163.61v88.49c0,31.192,17.825,46.473,48.383,46.473
			c14.643,0,31.83-3.185,54.749-7.64L278.2,408.068z"/>
	</g>
	<g>
		<path fill="#FFFFFF" d="M640.43,259.101c0,94.219-70.027,164.247-167.43,164.247c-97.401,0-167.429-70.026-167.429-164.247
			c0-92.945,70.027-161.063,167.429-161.063C570.403,98.038,640.43,166.156,640.43,259.101 M543.028,259.738
			c0-40.107-28.011-72.574-69.391-72.574c-42.017,0-70.027,32.467-70.027,72.574c0,41.379,28.011,74.484,70.027,74.484
			C515.017,334.223,543.028,301.117,543.028,259.738"/>
	</g>
	<g>
		<polygon fill="#FFFFFF" points="1044.034,413.799 949.817,413.799 900.797,254.645 851.141,413.799 757.56,413.799 
			651.244,105.042 759.47,105.042 807.852,270.561 860.054,105.042 941.539,105.042 993.742,269.287 1042.125,105.042 
			1149.713,105.042 		"/>
	</g>
	<g>
		<path fill="#FFFFFF" d="M1312.191,270.906c0,8.576-1.653,16.596-4.961,24.064c-3.307,7.473-7.777,14.022-13.408,19.653
			c-5.638,5.637-12.188,10.104-19.655,13.408c-7.474,3.307-15.492,4.961-24.062,4.961c-8.576,0-16.596-1.654-24.062-4.961
			c-7.475-3.306-14.023-7.771-19.655-13.408c-5.636-5.631-10.045-12.183-13.226-19.653c-3.187-7.47-4.775-15.488-4.775-24.064
			c0-8.57,1.59-16.59,4.775-24.062c3.181-7.469,7.59-14.02,13.226-19.657c5.632-5.631,12.182-10.039,19.655-13.225
			c7.468-3.181,15.486-4.776,24.062-4.776c8.57,0,16.59,1.595,24.062,4.776c7.469,3.186,14.019,7.594,19.655,13.225
			c5.631,5.637,10.103,12.188,13.408,19.657C1310.537,254.316,1312.191,262.336,1312.191,270.906"/>
	</g>
	<g>
		<path fill="#FFFFFF" d="M1639.668,408.068c-40.106,12.731-63.024,15.278-93.582,15.278c-74.483,0-124.142-54.748-124.142-138.145
			V193.53h-60.478v-88.489h60.478V0h103.131v105.041h105.041v88.489h-105.041v88.49c0,31.192,17.826,46.473,48.384,46.473
			c14.644,0,31.83-3.185,54.748-7.64L1639.668,408.068z"/>
	</g>
	<g>
		<path fill="#FFFFFF" d="M2008.265,413.799h-103.132V396.61c-22.919,14.643-50.931,23.555-84.67,23.555
			c-83.396,0-153.424-69.391-153.424-161.062c0-92.309,70.027-161.063,153.424-161.063c33.739,0,61.751,8.913,84.67,23.555v-16.552
			h103.132V413.799z M1905.133,306.848v-95.492c-19.101-22.281-41.381-29.284-64.299-29.284c-42.016,0-72.574,34.378-72.574,77.03
			s30.56,76.393,72.574,76.393C1863.752,335.494,1886.032,329.129,1905.133,306.848"/>
	</g>
	<g>
		<path fill="#FFFFFF" d="M2419.513,259.102c0,91.672-70.028,161.062-153.425,161.062c-33.739,0-61.752-8.911-84.67-23.554v160.426
			h-103.132V105.042h103.132v16.552c22.918-14.642,50.931-23.555,84.67-23.555C2349.484,98.039,2419.513,166.792,2419.513,259.102
			 M2318.289,259.102c0-42.652-30.558-77.03-72.572-77.03c-22.918,0-45.199,7.003-64.299,29.284v95.492
			c19.1,22.281,41.381,28.646,64.299,28.646C2287.732,335.494,2318.289,301.754,2318.289,259.102"/>
	</g>
</g>
</svg>
